<svg width="172" height="58" viewBox="0 0 172 58" fill="none" xmlns="http://www.w3.org/2000/svg">
<path fill-rule="evenodd" clip-rule="evenodd" d="M8.95625 10.2763V0.799999H0.15625V28.9852L8.95625 10.2763ZM0.15625 43.2991V56.8H8.95625V38.96L12.4762 31.84L19.9163 56.8H29.1163L18.4762 21.36L28.9563 0.799999H20.1562L19.0423 3.14717L0.15625 43.2991ZM67.3919 54C69.6319 56.4 72.8585 57.6 77.0719 57.6C81.2852 57.6 84.4852 56.4 86.6719 54C88.9119 51.6 90.0319 48.2133 90.0319 43.84V35.92H81.7119V44.48C81.7119 47.8933 80.2452 49.6 77.3119 49.6C74.3785 49.6 72.9119 47.8933 72.9119 44.48V13.2C72.9119 9.73333 74.3785 8 77.3119 8C80.2452 8 81.7119 9.73333 81.7119 13.2V19.68H90.0319V13.76C90.0319 9.38667 88.9119 6 86.6719 3.6C84.4852 1.2 81.2852 0 77.0719 0C72.8585 0 69.6319 1.2 67.3919 3.6C65.2052 6 64.1119 9.38667 64.1119 13.76V43.84C64.1119 48.2133 65.2052 51.6 67.3919 54ZM41.2812 0.799999H50.0813V56.8H41.2812V0.799999ZM103.297 0.799999H112.097V24.4L123.297 0.799999H132.097L121.617 21.36L132.257 56.8H123.057L115.617 31.84L112.097 38.96V56.8H103.297V0.799999ZM141.862 0.799999L152.502 32.96V56.8H161.302V32.96L171.942 0.799999H163.382L157.382 21.36H157.222L151.222 0.799999H141.862Z" fill="white"/>
<path d="M9 10.25V0.75H0V29.4375L9 10.25Z" fill="#FED700"/>
</svg>
